# xmcd
# 
# Track frame offsets:
#	150
#	16802
#	33112
#	48190
#	60205
#	76065
#	92247
#	110930
#	124730
#	137415
#	151495
#	167755
#
# Disc length: 2467 seconds
#
# Revision: 1
# Processed by: cddbd v1.4PL0 Copyright (c) Steve Scherf et al.
# Submitted via: Audio-CD-Archiv 2.10.441
#
DISCID=8909a10c
DTITLE=LCE - Ladies- Country- Express
DYEAR=1900
DGENRE=country
TTITLE0=Ladies- Country- Express
TTITLE1=Wo bist du?
TTITLE2=Ich will mit dir
TTITLE3=10 Tage auf der Autobahn
TTITLE4=Feuer der Nacht
TTITLE5=Für immer und ewig
TTITLE6=Komm doch nach Hause zurück
TTITLE7=Hey Du
TTITLE8=Wo sind die Cowboys?
TTITLE9=Eine Nacht ist mir zu wenig
TTITLE10=Darum liebe ich Dich
TTITLE11=Adios, alter Truck
EXTD=
EXTT0=
EXTT1=
EXTT2=
EXTT3=
EXTT4=
EXTT5=
EXTT6=
EXTT7=
EXTT8=
EXTT9=
EXTT10=
EXTT11=
PLAYORDER=
